<svg xmlns="http://www.w3.org/2000/svg" xmlns:xlink="http://www.w3.org/1999/xlink" width="500" zoomAndPan="magnify" viewBox="0 0 375 374.999991" height="500" preserveAspectRatio="xMidYMid meet" version="1.0"><defs><g/><clipPath id="5d710e6015"><path d="M 95.96875 109 L 278.96875 109 L 278.96875 299 L 95.96875 299 Z M 95.96875 109 " clip-rule="nonzero"/></clipPath></defs><g clip-path="url(#5d710e6015)"><path fill="#3d3b3a" d="M 164.484375 112.367188 C 165.96875 111.996094 167.460938 111.660156 168.957031 111.359375 C 170.457031 111.0625 171.964844 110.796875 173.476562 110.574219 C 174.988281 110.347656 176.503906 110.15625 178.023438 110.003906 C 179.546875 109.851562 181.070312 109.734375 182.597656 109.65625 C 184.125 109.578125 185.652344 109.535156 187.179688 109.53125 C 188.710938 109.527344 190.238281 109.5625 191.765625 109.628906 C 193.292969 109.699219 194.816406 109.808594 196.339844 109.953125 C 197.859375 110.09375 199.378906 110.277344 200.890625 110.492188 C 202.402344 110.710938 203.910156 110.964844 205.414062 111.257812 C 206.914062 111.546875 208.40625 111.875 209.890625 112.238281 C 211.375 112.601562 212.851562 113 214.316406 113.4375 C 215.78125 113.871094 217.238281 114.34375 218.679688 114.847656 C 220.121094 115.351562 221.550781 115.894531 222.96875 116.46875 C 224.382812 117.042969 225.785156 117.652344 227.171875 118.296875 C 228.558594 118.941406 229.929688 119.617188 231.285156 120.328125 C 232.636719 121.039062 233.972656 121.78125 235.292969 122.554688 C 236.609375 123.328125 237.90625 124.136719 239.1875 124.972656 C 240.464844 125.8125 241.722656 126.679688 242.960938 127.578125 C 244.195312 128.476562 245.410156 129.40625 246.601562 130.363281 C 247.792969 131.324219 248.960938 132.308594 250.101562 133.324219 C 251.246094 134.339844 252.363281 135.378906 253.457031 136.449219 C 254.550781 137.519531 255.617188 138.613281 256.65625 139.734375 C 257.695312 140.855469 258.707031 142 259.691406 143.171875 C 260.675781 144.339844 261.628906 145.535156 262.558594 146.75 C 263.484375 147.96875 264.378906 149.207031 265.246094 150.464844 C 266.109375 151.726562 266.945312 153.007812 267.75 154.304688 C 268.550781 155.605469 269.324219 156.925781 270.0625 158.265625 C 270.800781 159.601562 271.507812 160.957031 272.183594 162.332031 C 272.855469 163.703125 273.496094 165.089844 274.101562 166.492188 C 274.707031 167.898438 275.28125 169.316406 275.816406 170.746094 C 276.355469 172.175781 276.859375 173.621094 277.324219 175.078125 C 277.792969 176.53125 278.222656 178 278.621094 179.476562 C 278.765625 180.019531 278.910156 180.574219 279.046875 181.140625 L 277.605469 181.644531 C 277.460938 181.050781 277.308594 180.460938 277.148438 179.867188 C 276.757812 178.402344 276.328125 176.949219 275.867188 175.507812 C 275.402344 174.066406 274.902344 172.632812 274.371094 171.214844 C 273.835938 169.796875 273.269531 168.394531 272.667969 167.003906 C 272.066406 165.613281 271.429688 164.238281 270.761719 162.878906 C 270.089844 161.519531 269.390625 160.175781 268.652344 158.851562 C 267.917969 157.527344 267.152344 156.21875 266.351562 154.933594 C 265.554688 153.644531 264.722656 152.378906 263.863281 151.132812 C 263 149.886719 262.109375 148.660156 261.1875 147.457031 C 260.269531 146.253906 259.320312 145.074219 258.339844 143.917969 C 257.359375 142.761719 256.355469 141.628906 255.320312 140.519531 C 254.285156 139.414062 253.226562 138.332031 252.136719 137.277344 C 251.050781 136.222656 249.9375 135.191406 248.800781 134.191406 C 247.664062 133.191406 246.5 132.21875 245.316406 131.273438 C 244.132812 130.332031 242.921875 129.417969 241.695312 128.53125 C 240.464844 127.644531 239.210938 126.792969 237.941406 125.96875 C 236.667969 125.144531 235.378906 124.351562 234.066406 123.59375 C 232.757812 122.832031 231.429688 122.101562 230.082031 121.40625 C 228.734375 120.710938 227.375 120.050781 225.996094 119.421875 C 224.617188 118.792969 223.222656 118.199219 221.816406 117.636719 C 220.40625 117.078125 218.988281 116.550781 217.554688 116.0625 C 216.121094 115.570312 214.675781 115.113281 213.21875 114.695312 C 211.765625 114.273438 210.296875 113.890625 208.824219 113.539062 C 207.347656 113.191406 205.867188 112.878906 204.378906 112.605469 C 202.886719 112.328125 201.390625 112.089844 199.890625 111.886719 C 198.386719 111.683594 196.882812 111.519531 195.371094 111.390625 C 193.863281 111.261719 192.351562 111.167969 190.835938 111.113281 C 189.324219 111.058594 187.808594 111.039062 186.292969 111.058594 C 184.777344 111.078125 183.265625 111.136719 181.75 111.230469 C 180.238281 111.324219 178.730469 111.453125 177.222656 111.621094 C 175.71875 111.789062 174.21875 111.992188 172.722656 112.230469 C 171.226562 112.472656 169.734375 112.75 168.253906 113.0625 C 166.769531 113.378906 165.296875 113.726562 163.832031 114.113281 C 164.0625 113.535156 164.28125 112.960938 164.484375 112.371094 Z M 97.410156 226.472656 C 97.535156 226.960938 97.65625 227.441406 97.789062 227.929688 C 98.179688 229.394531 98.609375 230.851562 99.074219 232.296875 C 99.539062 233.746094 100.039062 235.179688 100.574219 236.601562 C 101.109375 238.023438 101.679688 239.429688 102.28125 240.824219 C 102.886719 242.21875 103.523438 243.59375 104.195312 244.957031 C 104.867188 246.320312 105.574219 247.664062 106.3125 248.992188 C 107.050781 250.320312 107.820312 251.628906 108.621094 252.921875 C 109.421875 254.210938 110.257812 255.480469 111.121094 256.730469 C 111.984375 257.976562 112.878906 259.203125 113.804688 260.410156 C 114.730469 261.617188 115.683594 262.796875 116.664062 263.957031 C 117.648438 265.113281 118.660156 266.246094 119.695312 267.355469 C 120.734375 268.464844 121.800781 269.546875 122.890625 270.605469 C 123.984375 271.660156 125.097656 272.691406 126.242188 273.691406 C 127.382812 274.695312 128.550781 275.667969 129.738281 276.613281 C 130.929688 277.554688 132.140625 278.472656 133.375 279.355469 C 134.609375 280.242188 135.863281 281.09375 137.140625 281.917969 C 138.417969 282.742188 139.714844 283.535156 141.03125 284.292969 C 142.34375 285.054688 143.679688 285.78125 145.027344 286.476562 C 146.378906 287.167969 147.746094 287.832031 149.128906 288.457031 C 150.515625 289.085938 151.914062 289.679688 153.324219 290.238281 C 154.738281 290.796875 156.164062 291.320312 157.601562 291.808594 C 159.039062 292.296875 160.488281 292.75 161.949219 293.167969 C 163.410156 293.585938 164.878906 293.964844 166.359375 294.3125 C 167.839844 294.65625 169.324219 294.964844 170.820312 295.238281 C 172.3125 295.511719 173.8125 295.746094 175.320312 295.945312 C 176.824219 296.144531 178.335938 296.304688 179.851562 296.429688 C 181.363281 296.554688 182.878906 296.644531 184.398438 296.695312 C 185.917969 296.742188 187.433594 296.757812 188.953125 296.734375 C 190.472656 296.707031 191.988281 296.648438 193.507812 296.546875 C 195.023438 296.449219 196.535156 296.3125 198.042969 296.140625 C 199.550781 295.96875 201.054688 295.757812 202.554688 295.511719 C 204.054688 295.265625 205.546875 294.980469 207.03125 294.660156 C 208.515625 294.339844 209.992188 293.984375 211.460938 293.59375 C 211.222656 294.167969 210.992188 294.75 210.78125 295.335938 C 209.296875 295.714844 207.804688 296.058594 206.300781 296.363281 C 204.800781 296.667969 203.292969 296.9375 201.777344 297.167969 C 200.261719 297.402344 198.742188 297.597656 197.21875 297.753906 C 195.695312 297.910156 194.167969 298.03125 192.636719 298.117188 C 191.109375 298.199219 189.578125 298.246094 188.042969 298.253906 C 186.511719 298.265625 184.980469 298.238281 183.449219 298.171875 C 181.917969 298.105469 180.390625 298.003906 178.863281 297.863281 C 177.339844 297.722656 175.816406 297.546875 174.300781 297.332031 C 172.78125 297.117188 171.269531 296.867188 169.765625 296.578125 C 168.261719 296.292969 166.765625 295.96875 165.273438 295.605469 C 163.785156 295.246094 162.304688 294.851562 160.835938 294.417969 C 159.367188 293.984375 157.90625 293.515625 156.460938 293.011719 C 155.011719 292.507812 153.578125 291.972656 152.15625 291.398438 C 150.738281 290.824219 149.332031 290.214844 147.941406 289.574219 C 146.546875 288.933594 145.171875 288.257812 143.816406 287.546875 C 142.457031 286.839844 141.117188 286.097656 139.792969 285.324219 C 138.472656 284.550781 137.167969 283.742188 135.886719 282.90625 C 134.601562 282.066406 133.339844 281.199219 132.101562 280.300781 C 130.859375 279.402344 129.640625 278.472656 128.445312 277.515625 C 127.25 276.554688 126.078125 275.570312 124.929688 274.554688 C 123.78125 273.539062 122.660156 272.496094 121.5625 271.425781 C 120.46875 270.355469 119.398438 269.257812 118.355469 268.136719 C 117.3125 267.015625 116.296875 265.867188 115.308594 264.695312 C 114.320312 263.523438 113.363281 262.328125 112.433594 261.109375 C 111.503906 259.890625 110.605469 258.652344 109.734375 257.390625 C 108.867188 256.128906 108.027344 254.84375 107.222656 253.542969 C 106.417969 252.238281 105.640625 250.917969 104.898438 249.578125 C 104.15625 248.234375 103.449219 246.878906 102.773438 245.503906 C 102.097656 244.128906 101.457031 242.738281 100.847656 241.332031 C 100.238281 239.921875 99.664062 238.503906 99.125 237.070312 C 98.585938 235.632812 98.082031 234.1875 97.613281 232.730469 C 97.148438 231.269531 96.714844 229.800781 96.316406 228.320312 C 96.199219 227.875 96.082031 227.425781 95.96875 226.980469 Z M 97.410156 226.472656 " fill-opacity="1" fill-rule="evenodd"/></g><g fill="#000000" fill-opacity="1"><g transform="translate(121.625446, 197.821191)"><g><path d="M 15.1875 -4.765625 L 7.109375 -4.765625 L 5.125 0 L 0.390625 0 L 11.390625 -25.3125 L 11.65625 -25.3125 L 22.640625 0 L 17.078125 0 Z M 13.59375 -8.796875 L 11.25 -14.734375 L 8.796875 -8.796875 Z M 13.59375 -8.796875 "/></g></g></g><g fill="#000000" fill-opacity="1"><g transform="translate(171.133583, 197.821191)"><g><path d="M 28.234375 -25.34375 L 28.234375 0 L 23.4375 0 L 23.4375 -11.609375 L 15.484375 -0.328125 L 15.421875 -0.328125 L 7.78125 -10.890625 L 7.78125 0 L 3.140625 0 L 3.140625 -25.34375 L 3.171875 -25.34375 L 15.515625 -7.84375 L 28.15625 -25.34375 Z M 28.234375 -25.34375 "/></g></g></g><g fill="#000000" fill-opacity="1"><g transform="translate(228.981328, 197.821191)"><g><path d="M 23.296875 -24.359375 L 12.171875 1.125 L 1.0625 -24.359375 L 6.8125 -24.359375 L 12.375 -10.625 L 17.609375 -24.359375 Z M 23.296875 -24.359375 "/></g></g></g><g fill="#000000" fill-opacity="1"><g transform="translate(133.833781, 217.999144)"><g><path d="M 5.234375 -1.890625 L 2.3125 -1.890625 L 1.53125 0 L 0.265625 0 L 3.8125 -8.359375 L 3.890625 -8.359375 L 7.453125 0 L 5.96875 0 Z M 4.796875 -2.984375 L 3.796875 -5.53125 L 2.75 -2.984375 Z M 4.796875 -2.984375 "/></g></g></g><g fill="#000000" fill-opacity="1"><g transform="translate(145.957157, 217.999144)"><g><path d="M 5.3125 -6.390625 C 4.625 -6.753906 4.007812 -6.9375 3.46875 -6.9375 C 3.070312 -6.9375 2.757812 -6.847656 2.53125 -6.671875 C 2.300781 -6.492188 2.1875 -6.253906 2.1875 -5.953125 C 2.1875 -5.648438 2.332031 -5.394531 2.625 -5.1875 C 2.914062 -4.988281 3.320312 -4.789062 3.84375 -4.59375 C 4.238281 -4.445312 4.578125 -4.285156 4.859375 -4.109375 C 5.140625 -3.929688 5.367188 -3.6875 5.546875 -3.375 C 5.734375 -3.0625 5.828125 -2.671875 5.828125 -2.203125 C 5.828125 -1.773438 5.722656 -1.390625 5.515625 -1.046875 C 5.304688 -0.703125 5 -0.425781 4.59375 -0.21875 C 4.1875 -0.0078125 3.707031 0.09375 3.15625 0.09375 C 2.664062 0.09375 2.1875 0.0195312 1.71875 -0.125 C 1.25 -0.28125 0.832031 -0.492188 0.46875 -0.765625 L 1.03125 -1.765625 C 1.300781 -1.554688 1.625 -1.382812 2 -1.25 C 2.375 -1.113281 2.71875 -1.046875 3.03125 -1.046875 C 3.425781 -1.046875 3.769531 -1.140625 4.0625 -1.328125 C 4.351562 -1.515625 4.5 -1.800781 4.5 -2.1875 C 4.5 -2.5 4.375 -2.757812 4.125 -2.96875 C 3.882812 -3.175781 3.539062 -3.363281 3.09375 -3.53125 C 2.644531 -3.695312 2.269531 -3.863281 1.96875 -4.03125 C 1.664062 -4.195312 1.40625 -4.425781 1.1875 -4.71875 C 0.96875 -5.019531 0.859375 -5.394531 0.859375 -5.84375 C 0.859375 -6.5 1.078125 -7.023438 1.515625 -7.421875 C 1.960938 -7.828125 2.550781 -8.046875 3.28125 -8.078125 C 3.8125 -8.078125 4.273438 -8.015625 4.671875 -7.890625 C 5.078125 -7.765625 5.453125 -7.59375 5.796875 -7.375 Z M 5.3125 -6.390625 "/></g></g></g><g fill="#000000" fill-opacity="1"><g transform="translate(156.789873, 217.999144)"><g><path d="M 5.90625 -8.03125 L 5.90625 -6.796875 L 3.828125 -6.796875 L 3.828125 0 L 2.546875 0 L 2.546875 -6.796875 L 0.53125 -6.796875 L 0.53125 -8.03125 Z M 5.90625 -8.03125 "/></g></g></g><g fill="#000000" fill-opacity="1"><g transform="translate(167.633615, 217.999144)"><g><path d="M 5.5 0 L 3.6875 -2.796875 L 2.390625 -2.796875 L 2.390625 0 L 1.109375 0 L 1.109375 -8.03125 L 3.359375 -8.03125 C 4.253906 -8.03125 4.972656 -7.800781 5.515625 -7.34375 C 6.054688 -6.882812 6.328125 -6.253906 6.328125 -5.453125 C 6.328125 -4.953125 6.222656 -4.488281 6.015625 -4.0625 C 5.804688 -3.644531 5.476562 -3.320312 5.03125 -3.09375 L 6.984375 0 Z M 2.390625 -4.03125 L 3.546875 -4.03125 C 4.054688 -4.03125 4.425781 -4.171875 4.65625 -4.453125 C 4.894531 -4.734375 5.015625 -5.050781 5.015625 -5.40625 C 5.015625 -5.613281 4.96875 -5.820312 4.875 -6.03125 C 4.789062 -6.238281 4.640625 -6.414062 4.421875 -6.5625 C 4.210938 -6.71875 3.929688 -6.796875 3.578125 -6.796875 L 2.390625 -6.796875 Z M 2.390625 -4.03125 "/></g></g></g><g fill="#000000" fill-opacity="1"><g transform="translate(179.437079, 217.999144)"><g><path d="M 0.609375 -4 C 0.609375 -4.738281 0.789062 -5.421875 1.15625 -6.046875 C 1.519531 -6.679688 2.015625 -7.1875 2.640625 -7.5625 C 3.273438 -7.9375 3.960938 -8.125 4.703125 -8.125 C 5.441406 -8.125 6.125 -7.9375 6.75 -7.5625 C 7.382812 -7.1875 7.890625 -6.679688 8.265625 -6.046875 C 8.640625 -5.410156 8.828125 -4.726562 8.828125 -4 C 8.828125 -3.257812 8.640625 -2.578125 8.265625 -1.953125 C 7.890625 -1.328125 7.382812 -0.828125 6.75 -0.453125 C 6.125 -0.0859375 5.441406 0.09375 4.703125 0.09375 C 3.960938 0.09375 3.273438 -0.0859375 2.640625 -0.453125 C 2.015625 -0.816406 1.519531 -1.3125 1.15625 -1.9375 C 0.789062 -2.5625 0.609375 -3.25 0.609375 -4 Z M 1.9375 -4 C 1.9375 -3.476562 2.0625 -3 2.3125 -2.5625 C 2.5625 -2.132812 2.898438 -1.789062 3.328125 -1.53125 C 3.753906 -1.269531 4.226562 -1.140625 4.75 -1.140625 C 5.25 -1.140625 5.707031 -1.265625 6.125 -1.515625 C 6.550781 -1.773438 6.882812 -2.125 7.125 -2.5625 C 7.375 -3 7.5 -3.476562 7.5 -4 C 7.5 -4.519531 7.375 -5 7.125 -5.4375 C 6.875 -5.882812 6.535156 -6.238281 6.109375 -6.5 C 5.679688 -6.757812 5.210938 -6.890625 4.703125 -6.890625 C 4.191406 -6.890625 3.722656 -6.757812 3.296875 -6.5 C 2.878906 -6.238281 2.546875 -5.882812 2.296875 -5.4375 C 2.054688 -5 1.9375 -4.519531 1.9375 -4 Z M 1.9375 -4 "/></g></g></g><g fill="#000000" fill-opacity="1"><g transform="translate(193.281334, 217.999144)"><g><path d="M 2.390625 -8.03125 L 2.390625 -1.234375 L 6.359375 -1.234375 L 6.359375 0 L 1.109375 0 L 1.109375 -8.03125 Z M 2.390625 -8.03125 "/></g></g></g><g fill="#000000" fill-opacity="1"><g transform="translate(204.643555, 217.999144)"><g><path d="M 0.609375 -4 C 0.609375 -4.738281 0.789062 -5.421875 1.15625 -6.046875 C 1.519531 -6.679688 2.015625 -7.1875 2.640625 -7.5625 C 3.273438 -7.9375 3.960938 -8.125 4.703125 -8.125 C 5.441406 -8.125 6.125 -7.9375 6.75 -7.5625 C 7.382812 -7.1875 7.890625 -6.679688 8.265625 -6.046875 C 8.640625 -5.410156 8.828125 -4.726562 8.828125 -4 C 8.828125 -3.257812 8.640625 -2.578125 8.265625 -1.953125 C 7.890625 -1.328125 7.382812 -0.828125 6.75 -0.453125 C 6.125 -0.0859375 5.441406 0.09375 4.703125 0.09375 C 3.960938 0.09375 3.273438 -0.0859375 2.640625 -0.453125 C 2.015625 -0.816406 1.519531 -1.3125 1.15625 -1.9375 C 0.789062 -2.5625 0.609375 -3.25 0.609375 -4 Z M 1.9375 -4 C 1.9375 -3.476562 2.0625 -3 2.3125 -2.5625 C 2.5625 -2.132812 2.898438 -1.789062 3.328125 -1.53125 C 3.753906 -1.269531 4.226562 -1.140625 4.75 -1.140625 C 5.25 -1.140625 5.707031 -1.265625 6.125 -1.515625 C 6.550781 -1.773438 6.882812 -2.125 7.125 -2.5625 C 7.375 -3 7.5 -3.476562 7.5 -4 C 7.5 -4.519531 7.375 -5 7.125 -5.4375 C 6.875 -5.882812 6.535156 -6.238281 6.109375 -6.5 C 5.679688 -6.757812 5.210938 -6.890625 4.703125 -6.890625 C 4.191406 -6.890625 3.722656 -6.757812 3.296875 -6.5 C 2.878906 -6.238281 2.546875 -5.882812 2.296875 -5.4375 C 2.054688 -5 1.9375 -4.519531 1.9375 -4 Z M 1.9375 -4 "/></g></g></g><g fill="#000000" fill-opacity="1"><g transform="translate(218.487814, 217.999144)"><g><path d="M 7.484375 -0.734375 C 7.265625 -0.535156 6.878906 -0.347656 6.328125 -0.171875 C 5.785156 0.00390625 5.285156 0.09375 4.828125 0.09375 C 3.984375 0.09375 3.238281 -0.0703125 2.59375 -0.40625 C 1.957031 -0.75 1.46875 -1.21875 1.125 -1.8125 C 0.78125 -2.40625 0.609375 -3.078125 0.609375 -3.828125 C 0.609375 -4.734375 0.789062 -5.507812 1.15625 -6.15625 C 1.53125 -6.800781 2.03125 -7.289062 2.65625 -7.625 C 3.289062 -7.957031 3.984375 -8.125 4.734375 -8.125 C 5.191406 -8.125 5.628906 -8.066406 6.046875 -7.953125 C 6.460938 -7.847656 6.828125 -7.707031 7.140625 -7.53125 L 6.734375 -6.34375 C 6.503906 -6.476562 6.207031 -6.59375 5.84375 -6.6875 C 5.488281 -6.78125 5.171875 -6.828125 4.890625 -6.828125 C 3.972656 -6.828125 3.25 -6.570312 2.71875 -6.0625 C 2.195312 -5.5625 1.9375 -4.851562 1.9375 -3.9375 C 1.9375 -3.394531 2.054688 -2.914062 2.296875 -2.5 C 2.546875 -2.082031 2.890625 -1.757812 3.328125 -1.53125 C 3.773438 -1.300781 4.285156 -1.1875 4.859375 -1.1875 C 5.117188 -1.1875 5.363281 -1.207031 5.59375 -1.25 C 5.832031 -1.300781 6.035156 -1.375 6.203125 -1.46875 L 6.203125 -2.796875 L 4.6875 -2.796875 L 4.6875 -4.03125 L 7.484375 -4.03125 Z M 7.484375 -0.734375 "/></g></g></g><g fill="#000000" fill-opacity="1"><g transform="translate(231.239978, 217.999144)"><g><path d="M 7.515625 -8.03125 L 4.5 -2.609375 L 4.5 0 L 3.21875 0 L 3.21875 -2.609375 L 0.25 -8.03125 L 1.828125 -8.03125 L 3.90625 -4.078125 L 5.9375 -8.03125 Z M 7.515625 -8.03125 "/></g></g></g><g fill="#000000" fill-opacity="1"><g transform="translate(251.361022, 217.999144)"><g><path d="M 2.65625 -2.984375 L 2.65625 -1.890625 L 0.59375 -1.890625 L 0.59375 -2.984375 Z M 2.65625 -2.984375 "/></g></g></g><g fill="#000000" fill-opacity="1"><g transform="translate(130.228523, 232.707447)"><g><path d="M 9.21875 -8.3125 L 9.21875 0 L 7.9375 0 L 7.9375 -4.640625 L 5.125 -0.65625 L 5.09375 -0.65625 L 2.34375 -4.453125 L 2.34375 0 L 1.109375 0 L 1.109375 -8.3125 L 5.125 -2.640625 L 9.1875 -8.3125 Z M 9.21875 -8.3125 "/></g></g></g><g fill="#000000" fill-opacity="1"><g transform="translate(144.955283, 232.707447)"><g><path d="M 2.265625 -2.890625 C 2.265625 -2.578125 2.34375 -2.285156 2.5 -2.015625 C 2.664062 -1.753906 2.882812 -1.546875 3.15625 -1.390625 C 3.4375 -1.234375 3.742188 -1.15625 4.078125 -1.15625 C 4.421875 -1.15625 4.734375 -1.234375 5.015625 -1.390625 C 5.304688 -1.546875 5.53125 -1.753906 5.6875 -2.015625 C 5.851562 -2.285156 5.9375 -2.578125 5.9375 -2.890625 L 5.9375 -8.03125 L 7.203125 -8.03125 L 7.203125 -2.859375 C 7.203125 -2.285156 7.0625 -1.773438 6.78125 -1.328125 C 6.507812 -0.878906 6.132812 -0.53125 5.65625 -0.28125 C 5.175781 -0.03125 4.648438 0.09375 4.078125 0.09375 C 3.503906 0.09375 2.976562 -0.03125 2.5 -0.28125 C 2.03125 -0.53125 1.660156 -0.878906 1.390625 -1.328125 C 1.117188 -1.773438 0.984375 -2.285156 0.984375 -2.859375 L 0.984375 -8.03125 L 2.265625 -8.03125 Z M 2.265625 -2.890625 "/></g></g></g><g fill="#000000" fill-opacity="1"><g transform="translate(157.541968, 232.707447)"><g><path d="M 5.3125 -6.390625 C 4.625 -6.753906 4.007812 -6.9375 3.46875 -6.9375 C 3.070312 -6.9375 2.757812 -6.847656 2.53125 -6.671875 C 2.300781 -6.492188 2.1875 -6.253906 2.1875 -5.953125 C 2.1875 -5.648438 2.332031 -5.394531 2.625 -5.1875 C 2.914062 -4.988281 3.320312 -4.789062 3.84375 -4.59375 C 4.238281 -4.445312 4.578125 -4.285156 4.859375 -4.109375 C 5.140625 -3.929688 5.367188 -3.6875 5.546875 -3.375 C 5.734375 -3.0625 5.828125 -2.671875 5.828125 -2.203125 C 5.828125 -1.773438 5.722656 -1.390625 5.515625 -1.046875 C 5.304688 -0.703125 5 -0.425781 4.59375 -0.21875 C 4.1875 -0.0078125 3.707031 0.09375 3.15625 0.09375 C 2.664062 0.09375 2.1875 0.0195312 1.71875 -0.125 C 1.25 -0.28125 0.832031 -0.492188 0.46875 -0.765625 L 1.03125 -1.765625 C 1.300781 -1.554688 1.625 -1.382812 2 -1.25 C 2.375 -1.113281 2.71875 -1.046875 3.03125 -1.046875 C 3.425781 -1.046875 3.769531 -1.140625 4.0625 -1.328125 C 4.351562 -1.515625 4.5 -1.800781 4.5 -2.1875 C 4.5 -2.5 4.375 -2.757812 4.125 -2.96875 C 3.882812 -3.175781 3.539062 -3.363281 3.09375 -3.53125 C 2.644531 -3.695312 2.269531 -3.863281 1.96875 -4.03125 C 1.664062 -4.195312 1.40625 -4.425781 1.1875 -4.71875 C 0.96875 -5.019531 0.859375 -5.394531 0.859375 -5.84375 C 0.859375 -6.5 1.078125 -7.023438 1.515625 -7.421875 C 1.960938 -7.828125 2.550781 -8.046875 3.28125 -8.078125 C 3.8125 -8.078125 4.273438 -8.015625 4.671875 -7.890625 C 5.078125 -7.765625 5.453125 -7.59375 5.796875 -7.375 Z M 5.3125 -6.390625 "/></g></g></g><g fill="#000000" fill-opacity="1"><g transform="translate(168.374683, 232.707447)"><g><path d="M 2.390625 -8.03125 L 2.390625 0 L 1.109375 0 L 1.109375 -8.03125 Z M 2.390625 -8.03125 "/></g></g></g><g fill="#000000" fill-opacity="1"><g transform="translate(176.284101, 232.707447)"><g><path d="M 7.0625 -0.625 C 6.820312 -0.457031 6.492188 -0.296875 6.078125 -0.140625 C 5.660156 0.015625 5.207031 0.09375 4.71875 0.09375 C 3.882812 0.09375 3.15625 -0.0859375 2.53125 -0.453125 C 1.914062 -0.816406 1.441406 -1.304688 1.109375 -1.921875 C 0.773438 -2.535156 0.609375 -3.210938 0.609375 -3.953125 C 0.609375 -4.753906 0.773438 -5.46875 1.109375 -6.09375 C 1.441406 -6.726562 1.90625 -7.222656 2.5 -7.578125 C 3.101562 -7.941406 3.789062 -8.125 4.5625 -8.125 C 5.03125 -8.125 5.460938 -8.0625 5.859375 -7.9375 C 6.265625 -7.8125 6.617188 -7.648438 6.921875 -7.453125 L 6.421875 -6.25 C 5.828125 -6.675781 5.21875 -6.890625 4.59375 -6.890625 C 4.125 -6.890625 3.6875 -6.757812 3.28125 -6.5 C 2.875 -6.25 2.546875 -5.90625 2.296875 -5.46875 C 2.054688 -5.03125 1.9375 -4.550781 1.9375 -4.03125 C 1.9375 -3.476562 2.046875 -2.984375 2.265625 -2.546875 C 2.492188 -2.109375 2.816406 -1.765625 3.234375 -1.515625 C 3.648438 -1.265625 4.128906 -1.140625 4.671875 -1.140625 C 5.066406 -1.140625 5.421875 -1.195312 5.734375 -1.3125 C 6.046875 -1.4375 6.304688 -1.59375 6.515625 -1.78125 Z M 7.0625 -0.625 "/></g></g></g><g fill="#000000" fill-opacity="1"><g transform="translate(188.363348, 232.707447)"><g><path d="M 2.65625 -2.984375 L 2.65625 -1.890625 L 0.59375 -1.890625 L 0.59375 -2.984375 Z M 2.65625 -2.984375 "/></g></g></g><g fill="#000000" fill-opacity="1"><g transform="translate(196.14038, 232.707447)"><g/></g></g><g fill="#000000" fill-opacity="1"><g transform="translate(204.082892, 232.707447)"><g><path d="M 7.59375 -8.03125 L 4 0.375 L 0.40625 -8.03125 L 1.9375 -8.03125 L 4.0625 -2.75 L 6.09375 -8.03125 Z M 7.59375 -8.03125 "/></g></g></g><g fill="#000000" fill-opacity="1"><g transform="translate(216.504118, 232.707447)"><g><path d="M 2.390625 -8.03125 L 2.390625 0 L 1.109375 0 L 1.109375 -8.03125 Z M 2.390625 -8.03125 "/></g></g></g><g fill="#000000" fill-opacity="1"><g transform="translate(224.41354, 232.707447)"><g><path d="M 1.109375 -8.03125 L 3.390625 -8.03125 C 4.390625 -8.03125 5.21875 -7.832031 5.875 -7.4375 C 6.539062 -7.039062 7.023438 -6.53125 7.328125 -5.90625 C 7.628906 -5.28125 7.78125 -4.613281 7.78125 -3.90625 C 7.78125 -3.125 7.597656 -2.4375 7.234375 -1.84375 C 6.867188 -1.25 6.378906 -0.789062 5.765625 -0.46875 C 5.160156 -0.15625 4.492188 0 3.765625 0 L 1.109375 0 Z M 3.546875 -1.234375 C 4.117188 -1.234375 4.625 -1.335938 5.0625 -1.546875 C 5.5 -1.765625 5.835938 -2.082031 6.078125 -2.5 C 6.328125 -2.914062 6.453125 -3.414062 6.453125 -4 C 6.453125 -4.625 6.316406 -5.144531 6.046875 -5.5625 C 5.773438 -5.988281 5.429688 -6.300781 5.015625 -6.5 C 4.609375 -6.707031 4.179688 -6.8125 3.734375 -6.8125 L 2.390625 -6.8125 L 2.390625 -1.234375 Z M 3.546875 -1.234375 "/></g></g></g><g fill="#000000" fill-opacity="1"><g transform="translate(237.220858, 232.707447)"><g><path d="M 6.4375 -8.03125 L 6.4375 -6.796875 L 2.390625 -6.796875 L 2.390625 -4.65625 L 5.984375 -4.65625 L 5.984375 -3.421875 L 2.390625 -3.421875 L 2.390625 -1.234375 L 6.578125 -1.234375 L 6.578125 0 L 1.109375 0 L 1.109375 -8.03125 Z M 6.4375 -8.03125 "/></g></g></g><g fill="#000000" fill-opacity="1"><g transform="translate(248.891946, 232.707447)"><g><path d="M 0.609375 -4 C 0.609375 -4.738281 0.789062 -5.421875 1.15625 -6.046875 C 1.519531 -6.679688 2.015625 -7.1875 2.640625 -7.5625 C 3.273438 -7.9375 3.960938 -8.125 4.703125 -8.125 C 5.441406 -8.125 6.125 -7.9375 6.75 -7.5625 C 7.382812 -7.1875 7.890625 -6.679688 8.265625 -6.046875 C 8.640625 -5.410156 8.828125 -4.726562 8.828125 -4 C 8.828125 -3.257812 8.640625 -2.578125 8.265625 -1.953125 C 7.890625 -1.328125 7.382812 -0.828125 6.75 -0.453125 C 6.125 -0.0859375 5.441406 0.09375 4.703125 0.09375 C 3.960938 0.09375 3.273438 -0.0859375 2.640625 -0.453125 C 2.015625 -0.816406 1.519531 -1.3125 1.15625 -1.9375 C 0.789062 -2.5625 0.609375 -3.25 0.609375 -4 Z M 1.9375 -4 C 1.9375 -3.476562 2.0625 -3 2.3125 -2.5625 C 2.5625 -2.132812 2.898438 -1.789062 3.328125 -1.53125 C 3.753906 -1.269531 4.226562 -1.140625 4.75 -1.140625 C 5.25 -1.140625 5.707031 -1.265625 6.125 -1.515625 C 6.550781 -1.773438 6.882812 -2.125 7.125 -2.5625 C 7.375 -3 7.5 -3.476562 7.5 -4 C 7.5 -4.519531 7.375 -5 7.125 -5.4375 C 6.875 -5.882812 6.535156 -6.238281 6.109375 -6.5 C 5.679688 -6.757812 5.210938 -6.890625 4.703125 -6.890625 C 4.191406 -6.890625 3.722656 -6.757812 3.296875 -6.5 C 2.878906 -6.238281 2.546875 -5.882812 2.296875 -5.4375 C 2.054688 -5 1.9375 -4.519531 1.9375 -4 Z M 1.9375 -4 "/></g></g></g><g fill="#000000" fill-opacity="1"><g transform="translate(156.74779, 249.809166)"><g><path d="M 4.265625 -5.328125 L 4.265625 -4.515625 L 1.59375 -4.515625 L 1.59375 -3.09375 L 3.984375 -3.09375 L 3.984375 -2.265625 L 1.59375 -2.265625 L 1.59375 -0.828125 L 4.375 -0.828125 L 4.375 0 L 0.734375 0 L 0.734375 -5.328125 Z M 4.265625 -5.328125 "/></g></g></g><g fill="#000000" fill-opacity="1"><g transform="translate(164.498554, 249.809166)"><g><path d="M 3.53125 -4.25 C 3.070312 -4.488281 2.664062 -4.609375 2.3125 -4.609375 C 2.039062 -4.609375 1.828125 -4.546875 1.671875 -4.421875 C 1.523438 -4.304688 1.453125 -4.148438 1.453125 -3.953125 C 1.453125 -3.753906 1.546875 -3.585938 1.734375 -3.453125 C 1.929688 -3.316406 2.203125 -3.179688 2.546875 -3.046875 C 2.816406 -2.953125 3.046875 -2.84375 3.234375 -2.71875 C 3.421875 -2.601562 3.570312 -2.441406 3.6875 -2.234375 C 3.8125 -2.035156 3.875 -1.78125 3.875 -1.46875 C 3.875 -1.1875 3.800781 -0.929688 3.65625 -0.703125 C 3.519531 -0.472656 3.316406 -0.285156 3.046875 -0.140625 C 2.773438 -0.00390625 2.457031 0.0625 2.09375 0.0625 C 1.769531 0.0625 1.453125 0.015625 1.140625 -0.078125 C 0.828125 -0.179688 0.550781 -0.320312 0.3125 -0.5 L 0.6875 -1.171875 C 0.863281 -1.035156 1.078125 -0.921875 1.328125 -0.828125 C 1.578125 -0.742188 1.804688 -0.703125 2.015625 -0.703125 C 2.273438 -0.703125 2.5 -0.757812 2.6875 -0.875 C 2.882812 -1 2.984375 -1.191406 2.984375 -1.453125 C 2.984375 -1.660156 2.898438 -1.832031 2.734375 -1.96875 C 2.578125 -2.101562 2.351562 -2.226562 2.0625 -2.34375 C 1.757812 -2.457031 1.503906 -2.566406 1.296875 -2.671875 C 1.097656 -2.785156 0.925781 -2.941406 0.78125 -3.140625 C 0.644531 -3.335938 0.578125 -3.585938 0.578125 -3.890625 C 0.578125 -4.316406 0.722656 -4.660156 1.015625 -4.921875 C 1.304688 -5.191406 1.695312 -5.335938 2.1875 -5.359375 C 2.539062 -5.359375 2.847656 -5.316406 3.109375 -5.234375 C 3.378906 -5.160156 3.628906 -5.050781 3.859375 -4.90625 Z M 3.53125 -4.25 "/></g></g></g><g fill="#000000" fill-opacity="1"><g transform="translate(171.692553, 249.809166)"><g><path d="M 3.921875 -5.328125 L 3.921875 -4.515625 L 2.546875 -4.515625 L 2.546875 0 L 1.6875 0 L 1.6875 -4.515625 L 0.359375 -4.515625 L 0.359375 -5.328125 Z M 3.921875 -5.328125 "/></g></g></g><g fill="#000000" fill-opacity="1"><g transform="translate(178.893874, 249.809166)"><g><path d="M 0.734375 -5.328125 L 2.25 -5.328125 C 2.914062 -5.328125 3.46875 -5.195312 3.90625 -4.9375 C 4.34375 -4.675781 4.660156 -4.335938 4.859375 -3.921875 C 5.066406 -3.503906 5.171875 -3.0625 5.171875 -2.59375 C 5.171875 -2.070312 5.046875 -1.613281 4.796875 -1.21875 C 4.554688 -0.832031 4.234375 -0.53125 3.828125 -0.3125 C 3.421875 -0.101562 2.976562 0 2.5 0 L 0.734375 0 Z M 2.359375 -0.828125 C 2.734375 -0.828125 3.066406 -0.894531 3.359375 -1.03125 C 3.648438 -1.175781 3.875 -1.382812 4.03125 -1.65625 C 4.195312 -1.9375 4.28125 -2.269531 4.28125 -2.65625 C 4.28125 -3.070312 4.191406 -3.421875 4.015625 -3.703125 C 3.835938 -3.984375 3.609375 -4.1875 3.328125 -4.3125 C 3.054688 -4.445312 2.773438 -4.515625 2.484375 -4.515625 L 1.59375 -4.515625 L 1.59375 -0.828125 Z M 2.359375 -0.828125 "/></g></g></g><g fill="#000000" fill-opacity="1"><g transform="translate(187.399203, 249.809166)"><g/></g></g><g fill="#000000" fill-opacity="1"><g transform="translate(192.673817, 249.809166)"><g><path d="M 3.765625 -0.828125 L 3.765625 0 L 0.390625 0 L 0.65625 -0.265625 C 1.144531 -0.742188 1.523438 -1.132812 1.796875 -1.4375 C 2.078125 -1.75 2.304688 -2.0625 2.484375 -2.375 C 2.671875 -2.6875 2.765625 -2.976562 2.765625 -3.25 C 2.765625 -3.519531 2.679688 -3.722656 2.515625 -3.859375 C 2.359375 -4.003906 2.160156 -4.078125 1.921875 -4.078125 C 1.660156 -4.078125 1.457031 -4.003906 1.3125 -3.859375 C 1.175781 -3.710938 1.109375 -3.546875 1.109375 -3.359375 C 1.109375 -3.054688 1.203125 -2.804688 1.390625 -2.609375 L 0.875 -2.125 C 0.695312 -2.226562 0.550781 -2.40625 0.4375 -2.65625 C 0.332031 -2.90625 0.28125 -3.132812 0.28125 -3.34375 C 0.28125 -3.613281 0.347656 -3.867188 0.484375 -4.109375 C 0.628906 -4.347656 0.835938 -4.535156 1.109375 -4.671875 C 1.378906 -4.816406 1.695312 -4.890625 2.0625 -4.890625 C 2.375 -4.890625 2.648438 -4.816406 2.890625 -4.671875 C 3.128906 -4.535156 3.316406 -4.347656 3.453125 -4.109375 C 3.585938 -3.867188 3.65625 -3.609375 3.65625 -3.328125 C 3.65625 -3.046875 3.585938 -2.769531 3.453125 -2.5 C 3.328125 -2.226562 3.175781 -1.972656 3 -1.734375 C 2.820312 -1.503906 2.570312 -1.203125 2.25 -0.828125 Z M 3.765625 -0.828125 "/></g></g></g><g fill="#000000" fill-opacity="1"><g transform="translate(199.706645, 249.809166)"><g><path d="M 2.296875 0.015625 C 1.898438 0.015625 1.546875 -0.078125 1.234375 -0.265625 C 0.929688 -0.460938 0.691406 -0.742188 0.515625 -1.109375 C 0.335938 -1.484375 0.25 -1.925781 0.25 -2.4375 C 0.25 -3.269531 0.429688 -3.882812 0.796875 -4.28125 C 1.160156 -4.6875 1.660156 -4.890625 2.296875 -4.890625 C 2.679688 -4.890625 3.023438 -4.789062 3.328125 -4.59375 C 3.640625 -4.40625 3.882812 -4.125 4.0625 -3.75 C 4.238281 -3.382812 4.328125 -2.945312 4.328125 -2.4375 C 4.328125 -1.914062 4.238281 -1.46875 4.0625 -1.09375 C 3.882812 -0.726562 3.640625 -0.453125 3.328125 -0.265625 C 3.023438 -0.078125 2.679688 0.015625 2.296875 0.015625 Z M 2.28125 -0.796875 C 2.664062 -0.796875 2.953125 -0.945312 3.140625 -1.25 C 3.335938 -1.550781 3.4375 -1.957031 3.4375 -2.46875 C 3.4375 -2.957031 3.335938 -3.347656 3.140625 -3.640625 C 2.953125 -3.929688 2.664062 -4.070312 2.28125 -4.0625 C 1.90625 -4.070312 1.617188 -3.925781 1.421875 -3.625 C 1.234375 -3.332031 1.140625 -2.9375 1.140625 -2.4375 C 1.140625 -1.9375 1.234375 -1.535156 1.421875 -1.234375 C 1.617188 -0.941406 1.90625 -0.796875 2.28125 -0.796875 Z M 2.28125 -0.796875 "/></g></g></g><g fill="#000000" fill-opacity="1"><g transform="translate(207.215651, 249.809166)"><g><path d="M 3.765625 -0.828125 L 3.765625 0 L 0.390625 0 L 0.65625 -0.265625 C 1.144531 -0.742188 1.523438 -1.132812 1.796875 -1.4375 C 2.078125 -1.75 2.304688 -2.0625 2.484375 -2.375 C 2.671875 -2.6875 2.765625 -2.976562 2.765625 -3.25 C 2.765625 -3.519531 2.679688 -3.722656 2.515625 -3.859375 C 2.359375 -4.003906 2.160156 -4.078125 1.921875 -4.078125 C 1.660156 -4.078125 1.457031 -4.003906 1.3125 -3.859375 C 1.175781 -3.710938 1.109375 -3.546875 1.109375 -3.359375 C 1.109375 -3.054688 1.203125 -2.804688 1.390625 -2.609375 L 0.875 -2.125 C 0.695312 -2.226562 0.550781 -2.40625 0.4375 -2.65625 C 0.332031 -2.90625 0.28125 -3.132812 0.28125 -3.34375 C 0.28125 -3.613281 0.347656 -3.867188 0.484375 -4.109375 C 0.628906 -4.347656 0.835938 -4.535156 1.109375 -4.671875 C 1.378906 -4.816406 1.695312 -4.890625 2.0625 -4.890625 C 2.375 -4.890625 2.648438 -4.816406 2.890625 -4.671875 C 3.128906 -4.535156 3.316406 -4.347656 3.453125 -4.109375 C 3.585938 -3.867188 3.65625 -3.609375 3.65625 -3.328125 C 3.65625 -3.046875 3.585938 -2.769531 3.453125 -2.5 C 3.328125 -2.226562 3.175781 -1.972656 3 -1.734375 C 2.820312 -1.503906 2.570312 -1.203125 2.25 -0.828125 Z M 3.765625 -0.828125 "/></g></g></g><g fill="#000000" fill-opacity="1"><g transform="translate(214.248479, 249.809166)"><g><path d="M 3.703125 -1.765625 L 3.703125 -1.125 L 3.09375 -1.125 L 3.09375 0 L 2.25 0 L 2.25 -1.125 L 0.09375 -1.125 L 3.09375 -4.890625 L 3.09375 -1.765625 Z M 2.25 -1.765625 L 2.25 -2.9375 L 1.34375 -1.765625 Z M 2.25 -1.765625 "/></g></g></g></svg>